<?xml version="1.0" encoding="UTF-8" standalone="no"?>
<svg
   width="32"
   height="32"
   viewBox="0 0 8.4666665 8.4666669"
   version="1.1"
   id="svg8"
   inkscape:version="1.1.2 (b8e25be833, 2022-02-05)"
   sodipodi:docname="1_night.svg"
   xmlns:inkscape="http://www.inkscape.org/namespaces/inkscape"
   xmlns:sodipodi="http://sodipodi.sourceforge.net/DTD/sodipodi-0.dtd"
   xmlns="http://www.w3.org/2000/svg"
   xmlns:svg="http://www.w3.org/2000/svg"
   xmlns:rdf="http://www.w3.org/1999/02/22-rdf-syntax-ns#"
   xmlns:cc="http://creativecommons.org/ns#"
   xmlns:dc="http://purl.org/dc/elements/1.1/">
  <defs
     id="defs2" />
  <sodipodi:namedview
     id="base"
     pagecolor="#ffffff"
     bordercolor="#666666"
     borderopacity="1.0"
     inkscape:pageopacity="0.0"
     inkscape:pageshadow="2"
     inkscape:zoom="15.839192"
     inkscape:cx="19.224465"
     inkscape:cy="15.026019"
     inkscape:document-units="mm"
     inkscape:current-layer="layer1"
     inkscape:document-rotation="0"
     showgrid="false"
     units="px"
     inkscape:window-width="1920"
     inkscape:window-height="974"
     inkscape:window-x="-11"
     inkscape:window-y="-11"
     inkscape:window-maximized="1"
     inkscape:pagecheckerboard="0" />
  <metadata
     id="metadata5">
    <rdf:RDF>
      <cc:Work
         rdf:about="">
        <dc:format>image/svg+xml</dc:format>
        <dc:type
           rdf:resource="http://purl.org/dc/dcmitype/StillImage" />
        <dc:title />
      </cc:Work>
    </rdf:RDF>
  </metadata>
  <g
     inkscape:label="Layer 1"
     inkscape:groupmode="layer"
     id="layer1">
    <path
       id="path900"
       style="fill:#ffffff;fill-opacity:1;stroke:none;stroke-width:0.761479"
       d="M 3.8391754,2.698034 A 1.5865,1.5865 0 0 0 2.647,4.2333407 1.5865,1.5865 0 0 0 4.2334665,5.8198072 1.5865,1.5865 0 0 0 5.7806588,4.5831902 1.5865,1.5865 0 0 1 5.3863677,4.633833 1.5865,1.5865 0 0 1 3.7999012,3.0473665 1.5865,1.5865 0 0 1 3.8391754,2.698034 Z" />
    <path
       inkscape:transform-center-y="-0.026364744"
       inkscape:transform-center-x="0.026364763"
       inkscape:randomized="0"
       inkscape:rounded="0"
       inkscape:flatsided="false"
       sodipodi:arg2="1.4137167"
       sodipodi:arg1="0.78539816"
       sodipodi:r2="0.27269557"
       sodipodi:r1="0.54539114"
       sodipodi:cy="2.9566691"
       sodipodi:cx="5.4456167"
       sodipodi:sides="5"
       id="path841"
       style="fill:#ffffff;fill-opacity:1;stroke:none;stroke-width:0.4;stroke-linecap:round"
       sodipodi:type="star"
       d="M 5.8312665,3.3423189 5.4882757,3.2260073 5.1980143,3.4426162 5.2026432,3.0804703 4.9069402,2.8713511 5.2527918,2.7638442 5.3602987,2.4179926 5.5694179,2.7136956 5.9315638,2.7090667 5.714955,2.9993281 Z"
       transform="translate(1.3322e-4)" />
    <path
       sodipodi:nodetypes="ssssssss"
       id="path836"
       d="m 4.165641,7.1404765 c 0.2875578,0 0.5862844,-0.3234242 0.6100022,-0.6100022 C 4.8237334,5.9494124 4.546476,5.7386205 3.7589729,5.5138041 3.2889949,5.3796347 3.0277228,4.7004678 2.5389685,4.7004678 c -0.4887542,0 -0.7500264,0.6791669 -1.2200044,0.8133363 -0.78750321,0.2248164 -1.06476052,0.4356083 -1.01667037,1.0166703 0.0237176,0.286578 0.32244443,0.6100022 0.61000224,0.6100022 z"
       style="fill:#dadada;fill-opacity:1;stroke:none;stroke-width:0.203334px;stroke-linecap:butt;stroke-linejoin:miter;stroke-opacity:1" />
  </g>
</svg>
