<?xml version="1.0" encoding="UTF-8" standalone="no"?>
<svg
   sodipodi:docname="2_night.svg"
   inkscape:version="1.1.2 (b8e25be833, 2022-02-05)"
   id="svg8"
   version="1.1"
   viewBox="0 0 8.4666665 8.4666669"
   height="32"
   width="32"
   xmlns:inkscape="http://www.inkscape.org/namespaces/inkscape"
   xmlns:sodipodi="http://sodipodi.sourceforge.net/DTD/sodipodi-0.dtd"
   xmlns="http://www.w3.org/2000/svg"
   xmlns:svg="http://www.w3.org/2000/svg"
   xmlns:rdf="http://www.w3.org/1999/02/22-rdf-syntax-ns#"
   xmlns:cc="http://creativecommons.org/ns#"
   xmlns:dc="http://purl.org/dc/elements/1.1/">
  <defs
     id="defs2" />
  <sodipodi:namedview
     inkscape:window-maximized="1"
     inkscape:window-y="-11"
     inkscape:window-x="-11"
     inkscape:window-height="974"
     inkscape:window-width="1920"
     units="px"
     showgrid="false"
     inkscape:document-rotation="0"
     inkscape:current-layer="layer1"
     inkscape:document-units="mm"
     inkscape:cy="15.026019"
     inkscape:cx="19.224465"
     inkscape:zoom="15.839192"
     inkscape:pageshadow="2"
     inkscape:pageopacity="0.0"
     borderopacity="1.0"
     bordercolor="#666666"
     pagecolor="#ffffff"
     id="base"
     inkscape:pagecheckerboard="0" />
  <metadata
     id="metadata5">
    <rdf:RDF>
      <cc:Work
         rdf:about="">
        <dc:format>image/svg+xml</dc:format>
        <dc:type
           rdf:resource="http://purl.org/dc/dcmitype/StillImage" />
        <dc:title />
      </cc:Work>
    </rdf:RDF>
  </metadata>
  <g
     id="layer1"
     inkscape:groupmode="layer"
     inkscape:label="Layer 1">
    <path
       id="path900"
       style="fill:#ffffff;fill-opacity:1;stroke:none;stroke-width:0.761479"
       d="M 5.3549366,1.5795303 A 1.5865,1.5865 0 0 0 4.1627611,3.114837 1.5865,1.5865 0 0 0 5.7492276,4.7013035 1.5865,1.5865 0 0 0 7.2964196,3.4646865 1.5865,1.5865 0 0 1 6.9021286,3.5153294 1.5865,1.5865 0 0 1 5.3156626,1.9288629 1.5865,1.5865 0 0 1 5.3549366,1.5795303 Z" />
    <path
       style="fill:#dadada;fill-opacity:1;stroke:none;stroke-width:0.264583px;stroke-linecap:butt;stroke-linejoin:miter;stroke-opacity:1"
       d="m 6.3499262,5.8208332 c 0.3741773,0 0.7628877,-0.4208476 0.79375,-0.79375 C 7.2062523,4.270991 6.8454781,3.9967033 5.8207595,3.7041667 5.2092125,3.5295821 4.8692387,2.6458333 4.2332595,2.6458333 c -0.6359791,0 -0.9759529,0.8837488 -1.5875,1.0583334 -1.0247186,0.2925367 -1.3854927,0.5668243 -1.3229166,1.3229166 0.030862,0.3729024 0.4195727,0.79375 0.79375,0.79375 z"
       id="path836"
       sodipodi:nodetypes="ssssssss" />
  </g>
</svg>
